<svg width="72" height="71" viewBox="0 0 72 71" fill="none" xmlns="http://www.w3.org/2000/svg">
<path fill-rule="evenodd" clip-rule="evenodd" d="M38.0088 39.7678L19.613 28L0.0361638 58.6031L14.9397 55.3283L18.2349 70.3245L18.3958 70.4274L38.0088 39.7678Z" fill="#3D81C4"/>
<path fill-rule="evenodd" clip-rule="evenodd" d="M54.0997 27.9998L35 38.5869L52.6127 70.361L56.8187 55.693L71.5779 59.9252L71.7449 59.8326L54.0997 27.9998Z" fill="#3D81C4"/>
<path fill-rule="evenodd" clip-rule="evenodd" d="M45.6967 4.28978C44.0855 4.26166 42.522 3.73851 41.2183 2.79135L40.7123 2.42369C37.9024 0.382209 34.0976 0.382207 31.2877 2.42369L30.9295 2.68398C29.7536 3.53831 28.3316 3.98667 26.8783 3.96131V3.96131C23.979 3.9107 21.3768 5.73278 20.4327 8.47459L20.324 8.79033C19.846 10.1783 18.9527 11.3856 17.765 12.2485L17.0304 12.7823C14.1642 14.8647 12.9648 18.5559 14.0596 21.9253L14.1697 22.2641C14.647 23.7331 14.6332 25.3176 14.1303 26.778V26.778C13.127 29.6918 14.114 32.9202 16.5751 34.7747L16.8586 34.9883C18.1044 35.9271 19.0313 37.2266 19.5134 38.7102L19.6527 39.139C20.6382 42.172 23.4645 44.2254 26.6536 44.2254V44.2254C28.2521 44.2254 29.8071 44.7458 31.0837 45.7077L31.2616 45.8418C34.0387 47.9345 37.8476 48.001 40.6962 46.0064L41.3916 45.5195C42.5945 44.6772 44.0274 44.2254 45.4958 44.2254H45.8299C48.7307 44.2254 51.3015 42.3576 52.1979 39.5988V39.5988C52.6472 38.216 53.5344 37.017 54.7255 36.183L55.13 35.8998C58.0299 33.8692 59.2925 30.2023 58.2575 26.8168L58.0328 26.082C57.5775 24.5927 57.5914 22.9994 58.0727 21.5182L58.1821 21.1813C59.1328 18.2555 58.0914 15.0503 55.6025 13.2421V13.2421C54.355 12.3357 53.4365 11.048 52.9856 9.57335L52.9615 9.49445C52.0308 6.45036 49.2459 4.35173 46.0632 4.29618L45.6967 4.28978Z" fill="#FFCB28"/>
<path fill-rule="evenodd" clip-rule="evenodd" d="M36 41C45.3888 41 53 33.3888 53 24C53 14.6112 45.3888 7 36 7C26.6112 7 19 14.6112 19 24C19 33.3888 26.6112 41 36 41ZM38.6719 32V14.9258H38.3086L31.043 17.4688V20.3047L35.0039 19.0977V32H38.6719Z" fill="#FAA629"/>
</svg>
