<svg width="72" height="69" viewBox="0 0 72 69" fill="none" xmlns="http://www.w3.org/2000/svg">
<path fill-rule="evenodd" clip-rule="evenodd" d="M38.0088 37.7678L19.613 26L0.0361943 56.6031L14.9397 53.3283L18.2349 68.3245L18.3958 68.4274L38.0088 37.7678Z" fill="#3D81C4"/>
<path fill-rule="evenodd" clip-rule="evenodd" d="M54.0997 25.9998L35 36.5869L52.6127 68.361L56.8187 53.693L71.5779 57.9252L71.7449 57.8326L54.0997 25.9998Z" fill="#3D81C4"/>
<path fill-rule="evenodd" clip-rule="evenodd" d="M46.5306 4.49755C44.5886 4.49755 42.7262 3.72611 41.353 2.35292L41.2488 2.24878C38.2505 -0.749591 33.3891 -0.749593 30.3908 2.24878L30.1395 2.5001C28.8605 3.77905 27.1259 4.49755 25.3172 4.49755V4.49755C21.5508 4.49755 18.4975 7.55084 18.4975 11.3173V11.3173C18.4975 13.126 17.779 14.8606 16.5 16.1395L16.2487 16.3908C13.2504 19.3891 13.2504 24.2504 16.2487 27.2487L16.3528 27.3527C17.726 28.726 18.4975 30.5884 18.4975 32.5305V32.5305C18.4975 36.5745 21.7758 39.8529 25.8199 39.8529H25.9672C27.8149 39.8529 29.587 40.5869 30.8935 41.8934V41.8934C33.6142 44.6142 38.0254 44.6142 40.7461 41.8934V41.8934C42.0527 40.5869 43.8247 39.8529 45.6724 39.8529H46.0279C50.3495 39.8529 53.8528 36.3495 53.8528 32.0279V31.6726C53.8528 29.8248 54.5868 28.0527 55.8934 26.7462V26.7462C58.6142 24.0254 58.6142 19.6141 55.8934 16.8933V16.8933C54.5868 15.5868 53.8528 13.8147 53.8528 11.9669V11.8198C53.8528 7.77582 50.5745 4.49755 46.5306 4.49755V4.49755Z" fill="#B0BEC5"/>
<path fill-rule="evenodd" clip-rule="evenodd" d="M36 39C45.3888 39 53 31.3888 53 22C53 12.6112 45.3888 5 36 5C26.6112 5 19 12.6112 19 22C19 31.3888 26.6112 39 36 39ZM41.9766 30V27.1523H34.957L37.5352 24.2227C38.1445 23.6133 38.6914 23.0352 39.1758 22.4883C39.6602 21.9336 40.0742 21.3906 40.418 20.8594C40.7617 20.3281 41.0234 19.793 41.2031 19.2539C41.3906 18.7148 41.4844 18.1562 41.4844 17.5781C41.4844 16.5547 41.2695 15.6797 40.8398 14.9531C40.4102 14.2266 39.7773 13.668 38.9414 13.2773C38.1055 12.8867 37.0703 12.6914 35.8359 12.6914C34.6328 12.6914 33.582 12.9492 32.6836 13.4648C31.7852 13.9727 31.0859 14.6562 30.5859 15.5156C30.0859 16.3672 29.8359 17.3125 29.8359 18.3516H33.5156C33.5156 17.8125 33.6055 17.332 33.7852 16.9102C33.9648 16.4805 34.2227 16.1445 34.5586 15.9023C34.8945 15.6602 35.2969 15.5391 35.7656 15.5391C36.2031 15.5391 36.5742 15.6328 36.8789 15.8203C37.1836 16.0078 37.4141 16.2773 37.5703 16.6289C37.7344 16.9805 37.8164 17.4102 37.8164 17.918C37.8164 18.2305 37.7461 18.5742 37.6055 18.9492C37.4648 19.3164 37.2383 19.7266 36.9258 20.1797C36.6211 20.6328 36.2109 21.1562 35.6953 21.75L30.1875 27.5859V30H41.9766Z" fill="#546F7A"/>
</svg>
