<svg width="72" height="69" viewBox="0 0 72 69" fill="none" xmlns="http://www.w3.org/2000/svg">
<path fill-rule="evenodd" clip-rule="evenodd" d="M38.0088 37.7678L19.613 26L0.0361943 56.6031L14.9397 53.3283L18.2349 68.3245L18.3958 68.4274L38.0088 37.7678Z" fill="#3D81C4"/>
<path fill-rule="evenodd" clip-rule="evenodd" d="M54.0997 25.9998L35 36.5869L52.6127 68.361L56.8187 53.693L71.5779 57.9252L71.7449 57.8326L54.0997 25.9998Z" fill="#3D81C4"/>
<path fill-rule="evenodd" clip-rule="evenodd" d="M48.8481 7.5424C46.3 7.5424 43.9455 6.183 42.6714 3.97629L42.553 3.7712C39.65 -1.25707 32.3923 -1.25707 29.4892 3.7712L29.3814 3.9579C28.1008 6.17599 25.7341 7.5424 23.1729 7.5424C17.6542 7.5424 14.213 13.5304 16.9723 18.3097C18.2464 20.5164 18.249 23.2398 16.975 25.4465C14.2298 30.2013 17.6613 36.1449 23.1517 36.1449C25.6998 36.1449 28.0543 37.5043 29.3284 39.711L29.4468 39.9161C32.3498 44.9443 39.6075 44.9443 42.5106 39.916L42.6184 39.7294C43.899 37.5113 46.2657 36.1449 48.8269 36.1449C54.3456 36.1449 57.7868 30.1569 55.0275 25.3775C53.7534 23.1708 53.7508 20.4474 55.0248 18.2407C57.77 13.4859 54.3385 7.5424 48.8481 7.5424Z" fill="#D99433"/>
<path fill-rule="evenodd" clip-rule="evenodd" d="M36 39C45.3888 39 53 31.3888 53 22C53 12.6112 45.3888 5 36 5C26.6112 5 19 12.6112 19 22C19 31.3888 26.6112 39 36 39ZM35.5781 19.9102H33.7148V20.8008V21.8086V22.6641H35.5781C36.125 22.6641 36.5938 22.75 36.9844 22.9219C37.375 23.0859 37.6719 23.3516 37.875 23.7188C38.0859 24.0781 38.1914 24.5547 38.1914 25.1484C38.1914 25.5859 38.0938 25.9727 37.8984 26.3086C37.7109 26.6445 37.4336 26.9102 37.0664 27.1055C36.707 27.293 36.2695 27.3867 35.7539 27.3867C35.3242 27.3867 34.9258 27.2969 34.5586 27.1172C34.1992 26.9297 33.9141 26.6797 33.7031 26.3672C33.5 26.0469 33.3984 25.6875 33.3984 25.2891H29.7305C29.7305 26.1484 29.9023 26.8906 30.2461 27.5156C30.5898 28.1328 31.0469 28.6445 31.6172 29.0508C32.1875 29.4492 32.8242 29.7461 33.5273 29.9414C34.2305 30.1367 34.9375 30.2344 35.6484 30.2344C36.5312 30.2344 37.3516 30.125 38.1094 29.9062C38.8672 29.6797 39.5273 29.3516 40.0898 28.9219C40.6523 28.4922 41.0898 27.9648 41.4023 27.3398C41.7148 26.7148 41.8711 26.0039 41.8711 25.207C41.8711 24.5352 41.7422 23.9258 41.4844 23.3789C41.2266 22.832 40.8516 22.3672 40.3594 21.9844C39.9602 21.6739 39.4916 21.4225 38.9536 21.2302C39.3734 21.0347 39.7482 20.8017 40.0781 20.5312C40.5625 20.1328 40.9336 19.6797 41.1914 19.1719C41.457 18.6562 41.5898 18.1211 41.5898 17.5664C41.5898 16.5039 41.3398 15.6133 40.8398 14.8945C40.3477 14.168 39.6523 13.6211 38.7539 13.2539C37.8633 12.8789 36.8281 12.6914 35.6484 12.6914C34.625 12.6914 33.6797 12.8828 32.8125 13.2656C31.9531 13.6406 31.2617 14.1758 30.7383 14.8711C30.2227 15.5664 29.9648 16.3906 29.9648 17.3438H33.6328C33.6328 16.9688 33.7344 16.6484 33.9375 16.3828C34.1406 16.1094 34.4023 15.9023 34.7227 15.7617C35.0508 15.6133 35.3945 15.5391 35.7539 15.5391C36.2539 15.5391 36.6602 15.6328 36.9727 15.8203C37.293 16 37.5312 16.2461 37.6875 16.5586C37.8438 16.8711 37.9219 17.2266 37.9219 17.625C37.9219 18.0859 37.8359 18.4883 37.6641 18.832C37.5 19.1758 37.2422 19.4414 36.8906 19.6289C36.5469 19.8164 36.1094 19.9102 35.5781 19.9102Z" fill="#FBEBB7"/>
</svg>
